<svg xmlns="http://www.w3.org/2000/svg" xmlns:xlink="http://www.w3.org/1999/xlink" id="Calque_1" x="0px" y="0px" viewBox="0 0 209.1 43.5" style="enable-background:new 0 0 209.1 43.5;" xml:space="preserve"><style type="text/css">	.st0{fill:#1D1D1B;}</style><g>	<path class="st0" d="M71.4,28.1c0,4.9,2.9,9,8.1,9c5.5,0,8.1-3.6,8.1-9.1c0-5.5-2.1-9.1-8-9.1C74.1,18.9,71.4,23.4,71.4,28.1   M95.5,0v34.3c0,2.8,0,5.6,0.1,8.3h-8c-0.1-1-0.2-2.5-0.2-3.7c-1.6,2.3-3.8,4.5-10.1,4.5c-8.3,0-14.2-6.1-14.2-15.2  c0-9.8,7.7-15.7,15-15.7c6.1,0,8.4,2.3,9.3,3.5V0H95.5z"></path>	<path class="st0" d="M103.9,21.3c0-2.7,0-5.3-0.1-8h7.9c0.1,1,0.3,4.2,0.3,6.1c1.7-4.1,5.5-7,11.5-6.9V20  c-6.7-0.1-11.5,3-11.5,11.5v11.2h-8.1V21.3z"></path>	<path class="st0" d="M128.6,13.3h8.1v29.3h-8.1V13.3z M128.6,0h8.1v7.2h-8.1V0z"></path>	<path class="st0" d="M150.3,13.3c3.6,9.9,7.3,18.7,8.4,22.2h0.1c1-3.3,3-8.7,8.3-22.2h8.2l-12.3,29.3h-9l-12.3-29.3H150.3z"></path>	<path class="st0" d="M200.9,24.8c-0.2-2.6-1.6-6.5-7.5-6.5c-5.2,0-7.4,3-7.7,6.5H200.9z M185.6,29.9c0.3,4.2,3.2,7.4,8.1,7.4  c3.8,0,5.8-1.3,7-3.5h8.1c-1.7,4.9-6,9.6-15.2,9.6c-11.5,0-16-7.9-16-15.4c0-8.4,5.7-15.5,15.9-15.5c11.3,0,15.7,8,15.7,15.4  c0,0.7,0,1.1,0,2H185.6z"></path>	<path class="st0" d="M41.7,36.3c-2.7,0-5.1-1.2-6.7-3l-6-6.8l-6,6.8c-1.7,1.9-4.1,3-6.7,3c-5,0-9-4-9-9s4-9,9-9  c2.7,0,5.1,1.2,6.7,3l6,6.8l6-6.8c1.7-1.9,4.1-3,6.7-3c5,0,9,4,9,9S46.6,36.3,41.7,36.3 M41.7,11c-4.8,0-9.1,2.1-12.1,5.4L29,17.1  l-0.6-0.6c-3-3.3-7.3-5.4-12.1-5.4C7.3,11,0,18.3,0,27.3s7.3,16.2,16.2,16.2c4.8,0,9.1-2.1,12.1-5.4l0.6-0.6l0.6,0.6  c3,3.3,7.3,5.4,12.1,5.4c9,0,16.2-7.3,16.2-16.2S50.7,11,41.7,11"></path></g></svg>